<?xml version="1.0" standalone="no"?>
<!DOCTYPE svg PUBLIC "-//W3C//DTD SVG 20010904//EN"
 "http://www.w3.org/TR/2001/REC-SVG-20010904/DTD/svg10.dtd">
<svg version="1.0" xmlns="http://www.w3.org/2000/svg"
 width="100.000000pt" height="100.000000pt" viewBox="0 0 100.000000 100.000000"
 preserveAspectRatio="xMidYMid meet">

<g transform="translate(0.000000,100.000000) scale(0.100000,-0.100000)"
fill="#000000" stroke="none">
<path d="M343 633 c-210 -214 -283 -294 -283 -312 0 -17 30 -55 107 -132 l107
-109 283 0 c275 0 283 1 283 20 0 19 -8 20 -167 22 l-168 3 228 231 c162 166
227 238 227 255 0 34 -275 309 -310 309 -20 1 -82 -57 -307 -287z m446 113
c84 -84 127 -134 115 -133 -13 2 -19 -4 -19 -20 0 -27 -11 -38 -38 -38 -16 0
-22 -6 -22 -22 0 -27 -11 -38 -38 -38 -15 0 -22 -6 -22 -20 0 -30 -14 -47 -35
-40 -22 7 -37 -12 -21 -28 8 -8 7 -15 -5 -28 -14 -15 -18 -15 -45 -2 -17 8
-34 25 -39 38 -5 12 -18 25 -29 28 -11 3 -25 17 -31 31 -6 16 -17 26 -29 26
-21 0 -35 16 -36 40 0 8 -8 15 -17 15 -22 0 -43 21 -43 43 0 12 -7 16 -22 15
-13 -2 -23 0 -23 4 0 9 252 263 260 263 3 0 66 -60 139 -134z m-290 -283 c75
-70 138 -131 140 -136 2 -5 -41 -54 -95 -108 l-99 -99 -75 0 -75 0 -97 97
c-54 54 -98 102 -98 107 0 9 250 266 258 266 3 0 66 -57 141 -127z"/>
<path d="M644 849 c-10 -17 13 -36 27 -22 12 12 4 33 -11 33 -5 0 -12 -5 -16
-11z"/>
<path d="M584 789 c-10 -17 13 -36 27 -22 12 12 4 33 -11 33 -5 0 -12 -5 -16
-11z"/>
<path d="M704 789 c-10 -17 13 -36 27 -22 12 12 4 33 -11 33 -5 0 -12 -5 -16
-11z"/>
<path d="M524 729 c-10 -17 13 -36 27 -22 12 12 4 33 -11 33 -5 0 -12 -5 -16
-11z"/>
<path d="M644 729 c-10 -17 13 -36 27 -22 12 12 4 33 -11 33 -5 0 -12 -5 -16
-11z"/>
<path d="M764 729 c-10 -17 13 -36 27 -22 12 12 4 33 -11 33 -5 0 -12 -5 -16
-11z"/>
<path d="M464 669 c-10 -17 13 -36 27 -22 12 12 4 33 -11 33 -5 0 -12 -5 -16
-11z"/>
<path d="M584 669 c-10 -17 13 -36 27 -22 12 12 4 33 -11 33 -5 0 -12 -5 -16
-11z"/>
<path d="M704 669 c-10 -17 13 -36 27 -22 12 12 4 33 -11 33 -5 0 -12 -5 -16
-11z"/>
<path d="M824 669 c-10 -17 13 -36 27 -22 12 12 4 33 -11 33 -5 0 -12 -5 -16
-11z"/>
<path d="M524 609 c-10 -17 13 -36 27 -22 12 12 4 33 -11 33 -5 0 -12 -5 -16
-11z"/>
<path d="M644 609 c-10 -17 13 -36 27 -22 12 12 4 33 -11 33 -5 0 -12 -5 -16
-11z"/>
<path d="M764 609 c-10 -17 13 -36 27 -22 12 12 4 33 -11 33 -5 0 -12 -5 -16
-11z"/>
<path d="M584 549 c-10 -17 13 -36 27 -22 12 12 4 33 -11 33 -5 0 -12 -5 -16
-11z"/>
<path d="M704 549 c-10 -17 13 -36 27 -22 12 12 4 33 -11 33 -5 0 -12 -5 -16
-11z"/>
<path d="M644 489 c-10 -17 13 -36 27 -22 12 12 4 33 -11 33 -5 0 -12 -5 -16
-11z"/>
</g>
</svg>
